0
SECTION
2
HEADER
9
$INSUNITS
70
4
9
$ACADVER
1
AC1014
9
$HANDSEED
5
FFFF
0
ENDSEC
0
SECTION
2
TABLES
0
TABLE
2
VPORT
5
8
100
AcDbSymbolTable
0
ENDTAB
0
TABLE
2
LTYPE
5
5
100
AcDbSymbolTable
0
LTYPE
5
14
100
AcDbSymbolTableRecord
100
AcDbLinetypeTableRecord
2
BYBLOCK
70
0
0
LTYPE
5
15
100
AcDbSymbolTableRecord
100
AcDbLinetypeTableRecord
2
BYLAYER
70
0
0
LTYPE
5
16
100
AcDbSymbolTableRecord
100
AcDbLinetypeTableRecord
2
DASHED
70
0
3
Dashed __ __ __ __ __ __ __ __ __ __ __ __ __ _
72
65
73
2
40
0.75
49
0.5
74
0
49
-0.25
74
0
0
ENDTAB
0
TABLE
2
LAYER
5
2
100
AcDbSymbolTable
70
2
0
LAYER
5
50
100
AcDbSymbolTableRecord
100
AcDbLayerTableRecord
2
0
70
0
62
7
6
CONTINUOUS
0
ENDTAB
0
TABLE
2
STYLE
5
3
100
AcDbSymbolTable
70
1
0
STYLE
5
11
100
AcDbSymbolTableRecord
100
AcDbTextStyleTableRecord
2
STANDARD
70
0
0
ENDTAB
0
TABLE
2
VIEW
5
6
100
AcDbSymbolTable
70
0
0
ENDTAB
0
TABLE
2
UCS
5
7
100
AcDbSymbolTable
70
0
0
ENDTAB
0
TABLE
2
APPID
5
9
100
AcDbSymbolTable
70
2
0
APPID
5
12
100
AcDbSymbolTableRecord
100
AcDbRegAppTableRecord
2
ACAD
70
0
0
ENDTAB
0
TABLE
2
DIMSTYLE
5
A
100
AcDbSymbolTable
70
1
0
ENDTAB
0
TABLE
2
BLOCK_RECORD
5
1
100
AcDbSymbolTable
70
1
0
BLOCK_RECORD
5
1F
100
AcDbSymbolTableRecord
100
AcDbBlockTableRecord
2
*MODEL_SPACE
0
BLOCK_RECORD
5
1B
100
AcDbSymbolTableRecord
100
AcDbBlockTableRecord
2
*PAPER_SPACE
0
ENDTAB
0
ENDSEC
0
SECTION
2
BLOCKS
0
BLOCK
5
20
100
AcDbEntity
100
AcDbBlockBegin
2
*MODEL_SPACE
0
ENDBLK
5
21
100
AcDbEntity
100
AcDbBlockEnd
0
BLOCK
5
1C
100
AcDbEntity
100
AcDbBlockBegin
2
*PAPER_SPACE
0
ENDBLK
5
1D
100
AcDbEntity
100
AcDbBlockEnd
0
ENDSEC
0
SECTION
2
ENTITIES
0
POINT
5
100
100
AcDbEntity
8
0
100
AcDbPoint
10
0
20
0
30
0
0
POINT
5
101
100
AcDbEntity
8
0
100
AcDbPoint
10
0
20
0
30
-2.5091040356528538e-12
0
LWPOLYLINE
5
102
100
AcDbEntity
8
0
100
AcDbPolyline
90
4
70
1
43
0.0
10
74.999999999999829
20
-314.99999999999989
10
75.000000000000142
20
144.99999999999989
10
-74.999999999999872
20
145.00000000000014
10
-74.999999999999943
20
-314.99999999999989
0
LINE
5
103
100
AcDbEntity
8
0
100
AcDbLine
10
-24.000000000000181
20
-314.99999999999989
30
1.3855583347321954e-12
11
-24.000000000000181
21
-311.99999999999983
31
1.3589129821411916e-12
0
LINE
5
104
100
AcDbEntity
8
0
100
AcDbLine
10
-24.000000000000181
20
-311.99999999999983
30
1.3589129821411916e-12
11
-69.999999999999886
21
-311.99999999999994
31
1.0080825063596421e-12
0
LINE
5
105
100
AcDbEntity
8
0
100
AcDbLine
10
-69.999999999999886
20
-311.99999999999994
30
1.0080825063596421e-12
11
-69.999999999999929
21
-233.99999999999989
31
4.0856207306205761e-13
0
LINE
5
106
100
AcDbEntity
8
0
100
AcDbLine
10
-69.999999999999929
20
-233.99999999999989
30
4.0856207306205761e-13
11
-74.999999999999929
21
-233.99999999999991
31
3.7747582837255322e-13
0
LINE
5
107
100
AcDbEntity
8
0
100
AcDbLine
10
-74.999999999999872
20
104.99999999999991
30
-2.233768725545815e-12
11
-59.999999999999872
21
104.99999999999991
31
-2.1094237467877974e-12
0
LINE
5
108
100
AcDbEntity
8
0
100
AcDbLine
10
-59.999999999999872
20
104.99999999999991
30
-2.1094237467877974e-12
11
-59.999999999999872
21
117.00000000000004
31
-2.1849189124623081e-12
0
LINE
5
109
100
AcDbEntity
8
0
100
AcDbLine
10
-59.999999999999872
20
117.00000000000004
30
-2.1849189124623081e-12
11
-69.999999999999872
21
117.00000000000004
31
-2.2781776465308212e-12
0
LINE
5
110
100
AcDbEntity
8
0
100
AcDbLine
10
-69.999999999999872
20
117.00000000000004
30
-2.2781776465308212e-12
11
-69.999999999999872
21
142.00000000000006
31
-2.4780177909633494e-12
0
LINE
5
111
100
AcDbEntity
8
0
100
AcDbLine
10
-69.999999999999872
20
142.00000000000006
30
-2.4780177909633494e-12
11
-24.000000000000075
21
142.00000000000006
31
-2.1271873151817999e-12
0
LINE
5
112
100
AcDbEntity
8
0
100
AcDbLine
10
-24.000000000000075
20
142.00000000000006
30
-2.1271873151817999e-12
11
-24.000000000000078
21
145.00000000000003
31
-2.1493917756743031e-12
0
LINE
5
113
100
AcDbEntity
8
0
100
AcDbLine
10
75.000000000000085
20
39.999999999999865
30
-5.8619775700208265e-13
11
25.000000000000085
21
39.999999999999794
31
-9.9031893796563963e-13
0
LINE
5
114
100
AcDbEntity
8
0
100
AcDbLine
10
25.000000000000085
20
39.999999999999794
30
-9.9031893796563963e-13
11
25.000000000000085
21
54.999999999999872
31
-1.1057821325266559e-12
0
LINE
5
115
100
AcDbEntity
8
0
100
AcDbLine
10
25.000000000000085
20
54.999999999999872
30
-1.1057821325266559e-12
11
75.000000000000085
21
54.999999999999986
31
-7.0166095156309893e-13
0
LINE
5
116
100
AcDbEntity
8
0
100
AcDbLine
10
64.999999999999829
20
-314.99999999999989
30
2.0694557179012918e-12
11
64.999999999999744
21
-272.49999999999989
31
1.7541523789077473e-12
6
DASHED
0
CIRCLE
5
117
100
AcDbEntity
8
0
100
AcDbCircle
10
64.999999999999744
20
-272.49999999999989
30
1.7541523789077473e-12
40
1.7000000000000173
210
-7.7166966421149589e-15
220
7.7166966421149021e-15
230
1
0
LINE
5
118
100
AcDbEntity
8
0
100
AcDbLine
10
65.000000000000242
20
144.99999999999989
30
-1.4654943925052066e-12
11
65.000000000000242
21
89.999999999999886
31
-1.0436096431476471e-12
6
DASHED
0
CIRCLE
5
119
100
AcDbEntity
8
0
100
AcDbCircle
10
65.000000000000242
20
89.999999999999886
30
-1.0436096431476471e-12
40
2.6999999999999962
210
-7.7166966421149589e-15
220
7.7166966421149021e-15
230
1
0
LINE
5
120
100
AcDbEntity
8
0
100
AcDbLine
10
65.000000000000242
20
89.999999999999886
30
-1.0436096431476471e-12
11
65.000000000000014
21
-135.00000000000011
31
6.9277916736609768e-13
6
DASHED
0
CIRCLE
5
121
100
AcDbEntity
8
0
100
AcDbCircle
10
65.000000000000014
20
-135.00000000000011
30
6.9277916736609768e-13
40
2.6999999999999962
210
-7.7166966421149589e-15
220
7.7166966421149021e-15
230
1
0
LINE
5
122
100
AcDbEntity
8
0
100
AcDbLine
10
74.999999999999986
20
-85.000000000000085
30
3.9523939676655573e-13
11
25.000000000000583
21
-85.000000000000171
31
3.1086244689504383e-14
0
LINE
5
123
100
AcDbEntity
8
0
100
AcDbLine
10
25.000000000000583
20
-85.000000000000171
30
3.1086244689504383e-14
11
25.000000000000551
21
-75.000000000000171
31
-4.4408920985006262e-14
0
LINE
5
124
100
AcDbEntity
8
0
100
AcDbLine
10
25.000000000000551
20
-75.000000000000171
30
-4.4408920985006262e-14
11
35.000000000000291
21
-75.000000000000128
31
0
0
LINE
5
125
100
AcDbEntity
8
0
100
AcDbLine
10
35.000000000000291
20
-75.000000000000128
30
0
11
35.000000000000064
21
9.9999999999998774
31
-6.794564910705958e-13
0
LINE
5
126
100
AcDbEntity
8
0
100
AcDbLine
10
35.000000000000064
20
9.9999999999998774
30
-6.794564910705958e-13
11
75.000000000000057
21
9.9999999999999307
31
-3.5971225997855072e-13
0
LINE
5
127
100
AcDbEntity
8
0
100
AcDbLine
10
0
20
0
30
-2.5091040356528538e-12
11
1.3737159558028603e-13
21
145
31
-2.5091040356528538e-12
6
DASHED
0
ENDSEC
0
SECTION
2
OBJECTS
0
DICTIONARY
5
C
100
AcDbDictionary
3
ACAD_GROUP
350
D
3
ACAD_MLINESTYLE
350
17
0
DICTIONARY
5
D
100
AcDbDictionary
0
DICTIONARY
5
1A
330
C
100
AcDbDictionary
0
DICTIONARY
5
17
100
AcDbDictionary
0
ENDSEC
0
EOF
